<?xml version="1.0" encoding="iso-8859-1"?>
<!-- Uploaded to: SVG Repo, www.svgrepo.com, Generator: SVG Repo Mixer Tools -->
<svg height="800px" width="800px" version="1.1" id="Layer_1" xmlns="http://www.w3.org/2000/svg" xmlns:xlink="http://www.w3.org/1999/xlink" 
	 viewBox="0 0 512.008 512.008" xml:space="preserve">
<path style="fill:#CCD1D9;" d="M512.004,256.004c0,141.393-114.596,256.004-255.996,256.004
	c-141.377,0-256.004-114.611-256.004-256.004C0.004,114.627,114.631,0,256.008,0C397.408,0,512.004,114.627,512.004,256.004z"/>
<g>
	<path style="fill:#AAB2BD;" d="M428.159,383.412c-18.938,18.922-44.47,24.047-57.056,11.453
		c-12.594-12.594-7.469-38.125,11.461-57.047c18.906-18.907,44.438-24.048,57.032-11.454
		C452.191,338.959,447.066,364.49,428.159,383.412z"/>
	<path style="fill:#AAB2BD;" d="M257.867,391.115c16.547,7.5,24.516,25.594,17.797,40.406
		c-6.719,14.813-25.562,20.735-42.109,13.235c-16.563-7.5-24.532-25.579-17.813-40.392
		C222.461,389.553,241.32,383.615,257.867,391.115z"/>
	<path style="fill:#AAB2BD;" d="M433.534,176.347c11.5,20.719,8.219,44.532-7.344,53.172c-15.562,8.657-37.501-1.141-49.032-21.86
		c-11.492-20.719-8.211-44.516,7.344-53.172C400.065,145.846,422.034,155.628,433.534,176.347z"/>
	<path style="fill:#AAB2BD;" d="M264.102,114.736c20.031,9.016,42.204,3.188,49.517-13.047s-2.984-36.719-23.016-45.735
		c-20.032-9.031-42.204-3.203-49.517,13.031C233.758,85.22,244.07,105.705,264.102,114.736z"/>
	<path style="fill:#AAB2BD;" d="M150.803,172.144c-14.5,14.5-36.454,16.047-49.047,3.453c-12.594-12.579-11.047-34.548,3.469-49.048
		c14.5-14.516,36.469-16.062,49.047-3.469C166.866,135.674,165.319,157.628,150.803,172.144z"/>
	<path style="fill:#AAB2BD;" d="M135.912,306.427c10.422,22.422,5.766,46.688-10.375,54.188c-16.156,7.5-37.688-4.609-48.094-27.032
		c-10.422-22.422-5.766-46.673,10.375-54.173C103.975,271.91,125.506,284.004,135.912,306.427z"/>
</g>
</svg>