<?xml version="1.0" encoding="iso-8859-1"?>
<!-- Uploaded to: SVG Repo, www.svgrepo.com, Generator: SVG Repo Mixer Tools -->
<svg height="800px" width="800px" version="1.1" id="Layer_1" xmlns="http://www.w3.org/2000/svg" xmlns:xlink="http://www.w3.org/1999/xlink" 
	 viewBox="0 0 512 512" xml:space="preserve">
<circle style="fill:#FFBA7A;" cx="256" cy="256" r="169.419"/>
<g>
	<path style="fill:#5E282D;" d="M256,435.615c-99.04,0-179.615-80.575-179.615-179.615S156.96,76.385,256,76.385
		S435.615,156.96,435.615,256S355.04,435.615,256,435.615z M256,96.783c-87.793,0-159.217,71.424-159.217,159.217
		S168.207,415.217,256,415.217S415.217,343.793,415.217,256S343.793,96.783,256,96.783z"/>
	<path style="fill:#5E282D;" d="M382.467,55.406c-1.789,0-3.601-0.47-5.246-1.461C340.721,31.999,298.803,20.398,256,20.398
		s-84.721,11.601-121.222,33.547c-4.827,2.902-11.095,1.341-13.996-3.485c-2.903-4.827-1.342-11.094,3.485-13.997
		C163.941,12.609,209.494,0,256,0s92.059,12.609,131.733,36.464c4.827,2.903,6.388,9.169,3.485,13.997
		C389.304,53.644,385.929,55.406,382.467,55.406z"/>
	<path style="fill:#5E282D;" d="M45.215,392.677c-3.462,0-6.837-1.762-8.751-4.945C12.609,348.059,0,302.506,0,256
		s12.609-92.059,36.464-131.733c2.904-4.826,9.169-6.387,13.997-3.485c4.827,2.903,6.388,9.169,3.485,13.996
		C31.999,171.279,20.398,213.197,20.398,256s11.601,84.721,33.547,121.222c2.903,4.827,1.342,11.094-3.485,13.996
		C48.816,392.206,47.003,392.677,45.215,392.677z"/>
	<path style="fill:#5E282D;" d="M466.785,392.677c-1.789,0-3.601-0.47-5.246-1.461c-4.827-2.903-6.388-9.169-3.485-13.996
		c21.948-36.5,33.548-78.418,33.548-121.221s-11.601-84.721-33.547-121.222c-2.903-4.827-1.342-11.094,3.485-13.996
		c4.827-2.904,11.094-1.342,13.997,3.485C499.391,163.941,512,209.494,512,256s-12.609,92.059-36.464,131.733
		C473.622,390.915,470.247,392.677,466.785,392.677z"/>
	<path style="fill:#5E282D;" d="M256,512c-46.506,0-92.059-12.609-131.733-36.464c-4.827-2.903-6.388-9.169-3.485-13.997
		c2.903-4.827,9.17-6.388,13.996-3.485c36.501,21.948,78.419,33.548,121.222,33.548s84.721-11.601,121.222-33.547
		c4.826-2.905,11.094-1.342,13.996,3.485c2.903,4.827,1.342,11.094-3.485,13.997C348.059,499.391,302.506,512,256,512z"/>
	<path style="fill:#5E282D;" d="M456.474,216.081c-4.573,0-8.734-3.099-9.889-7.737c-8.58-34.456-26.453-66.006-51.688-91.24
		c-25.235-25.235-56.785-43.108-91.24-51.688c-5.466-1.361-8.794-6.896-7.433-12.361c1.361-5.466,6.899-8.794,12.361-7.433
		c38.049,9.474,72.882,29.203,100.736,57.056c27.853,27.854,47.583,62.687,57.056,100.737c1.361,5.466-1.966,11-7.433,12.361
		C458.119,215.982,457.288,216.081,456.474,216.081z"/>
	<path style="fill:#5E282D;" d="M55.527,216.081c-0.816,0-1.645-0.099-2.472-0.305c-5.466-1.361-8.794-6.896-7.433-12.361
		c9.474-38.049,29.203-72.882,57.056-100.737c27.854-27.853,62.687-47.583,100.737-57.056c5.464-1.362,11.001,1.966,12.361,7.433
		c1.361,5.466-1.966,11-7.433,12.361c-34.456,8.58-66.006,26.453-91.24,51.688c-25.235,25.235-43.108,56.785-51.688,91.24
		C64.261,212.983,60.101,216.081,55.527,216.081z"/>
	<path style="fill:#5E282D;" d="M454.981,322.02c-0.909,0-1.833-0.122-2.751-0.379c-5.425-1.517-8.594-7.144-7.077-12.568
		c0.498-1.779,0.979-3.602,1.432-5.419c1.362-5.466,6.9-8.795,12.362-7.431c5.466,1.362,8.793,6.897,7.431,12.362
		c-0.499,2.003-1.03,4.015-1.579,5.979C463.538,319.071,459.441,322.02,454.981,322.02z"/>
	<path style="fill:#5E282D;" d="M306.113,466.683c-4.573,0-8.734-3.099-9.889-7.737c-1.361-5.466,1.966-11,7.433-12.361
		c34.456-8.58,66.006-26.453,91.24-51.688c13.102-13.102,24.243-27.886,33.114-43.942c2.724-4.93,8.929-6.72,13.86-3.995
		c4.93,2.724,6.719,8.929,3.995,13.86c-9.795,17.73-22.09,34.048-36.544,48.502c-27.854,27.854-62.687,47.583-100.736,57.057
		C307.758,466.584,306.929,466.683,306.113,466.683z"/>
	<path style="fill:#5E282D;" d="M205.887,466.683c-0.816,0-1.645-0.099-2.472-0.305c-38.049-9.474-72.882-29.203-100.737-57.056
		c-27.853-27.854-47.583-62.687-57.056-100.736c-1.361-5.466,1.966-11,7.433-12.361c5.463-1.361,11,1.966,12.361,7.433
		c8.58,34.456,26.453,66.006,51.688,91.24c25.235,25.235,56.785,43.108,91.24,51.688c5.466,1.361,8.794,6.896,7.433,12.361
		C214.622,463.584,210.462,466.683,205.887,466.683z"/>
</g>
</svg>