<?xml version="1.0" encoding="utf-8"?>
<!-- Uploaded to: SVG Repo, www.svgrepo.com, Generator: SVG Repo Mixer Tools -->
<svg width="800px" height="800px" viewBox="0 0 24 24" fill="none" xmlns="http://www.w3.org/2000/svg">
<g id="style=bulk">
<g id="menu-strawberry">
<path id="rectangle" d="M1.25 7.25C1.25 3.93629 3.93629 1.25 7.25 1.25H16.75C20.0637 1.25 22.75 3.93629 22.75 7.25V16.75C22.75 20.0637 20.0637 22.75 16.75 22.75H7.25C3.93629 22.75 1.25 20.0637 1.25 16.75V7.25Z" fill="#BFBFBF"/>
<path id="vector (Stroke)" fill-rule="evenodd" clip-rule="evenodd" d="M4.25 7.75C4.25 7.33579 4.51691 7 4.84615 7H19.1538C19.4831 7 19.75 7.33579 19.75 7.75C19.75 8.16421 19.4831 8.5 19.1538 8.5H4.84615C4.51691 8.5 4.25 8.16421 4.25 7.75Z" fill="#000000"/>
<path id="vector (Stroke)_2" fill-rule="evenodd" clip-rule="evenodd" d="M6.25 12.25C6.25 11.8358 6.58579 11.5 7 11.5H17C17.4142 11.5 17.75 11.8358 17.75 12.25C17.75 12.6642 17.4142 13 17 13H7C6.58579 13 6.25 12.6642 6.25 12.25Z" fill="#000000"/>
<path id="vector (Stroke)_3" fill-rule="evenodd" clip-rule="evenodd" d="M8.25 16.75C8.25 16.3358 8.58579 16 9 16H15C15.4142 16 15.75 16.3358 15.75 16.75C15.75 17.1642 15.4142 17.5 15 17.5H9C8.58579 17.5 8.25 17.1642 8.25 16.75Z" fill="#000000"/>
</g>
</g>
</svg>